<svg xmlns="http://www.w3.org/2000/svg" width="22.84" height="22.84" viewBox="0 0 22.84 22.84">
  <path id="Icon_awesome-expand" data-name="Icon awesome-expand" d="M0,9.8V3.474A1.221,1.221,0,0,1,1.224,2.25H7.545a.614.614,0,0,1,.612.612V4.9a.614.614,0,0,1-.612.612H3.263V9.8a.614.614,0,0,1-.612.612H.612A.614.614,0,0,1,0,9.8ZM14.683,2.862V4.9a.614.614,0,0,0,.612.612h4.282V9.8a.614.614,0,0,0,.612.612h2.039A.614.614,0,0,0,22.84,9.8V3.474A1.221,1.221,0,0,0,21.616,2.25H15.295A.614.614,0,0,0,14.683,2.862Zm7.545,14.071H20.189a.614.614,0,0,0-.612.612v4.282H15.295a.614.614,0,0,0-.612.612v2.039a.614.614,0,0,0,.612.612h6.322a1.221,1.221,0,0,0,1.224-1.224V17.545A.614.614,0,0,0,22.228,16.933ZM8.157,24.478V22.439a.614.614,0,0,0-.612-.612H3.263V17.545a.614.614,0,0,0-.612-.612H.612A.614.614,0,0,0,0,17.545v6.322A1.221,1.221,0,0,0,1.224,25.09H7.545A.614.614,0,0,0,8.157,24.478Z" transform="translate(0 -2.25)" fill="#767676"/>
</svg>
